<svg version="1.2" xmlns="http://www.w3.org/2000/svg" viewBox="0 0 470 470" width="470" height="470"><style>.a{fill:#fff}.b{fill:#0092ff}</style><path fill-rule="evenodd" class="a" d="m138 60l99-53 97 59-6 163-187 1"/><path fill-rule="evenodd" class="b" d="m321.3 224l0.5-0.3-174.4-159.2-1.2 160.4"/><path  d="m462.5 222.9h-126.6v-147.3l14 8.2c1.2 0.7 2.5 1.1 3.8 1.1 2.6 0 5.1-1.4 6.5-3.7 2.1-3.6 0.9-8.2-2.7-10.3l-118.7-69.9c-2.3-1.3-5.3-1.3-7.6 0l-118.7 69.9c-3.6 2.1-4.8 6.7-2.7 10.3 2.1 3.5 6.7 4.7 10.3 2.6l14-8.2v147.3h-126.6c-4.1 0-7.5 3.4-7.5 7.5 0 4.2 3.4 7.5 7.5 7.5h455c4.1 0 7.5-3.3 7.5-7.5 0-4.1-3.4-7.5-7.5-7.5zm-313.4 0v-156.2l85.9-50.5 85.9 50.5v156.2"/><path  d="m289.8 334.9v-74.5c0-4.1-3.4-7.5-7.5-7.5-4.2 0-7.5 3.4-7.5 7.5v74.5l-15.2 14.5c-3 2.9-3.1 7.7-0.2 10.6 2.8 3 7.6 3.1 10.6 0.3l4.8-4.7v59.6c0 22-17.9 39.8-39.8 39.8-21.9 0-39.8-17.8-39.8-39.8v-57.1l15.2-14.6c3-2.9 3.1-7.6 0.2-10.6-2.8-3-7.6-3.1-10.6-0.2l-4.8 4.6v-76.9c0-4.1-3.3-7.5-7.5-7.5-4.1 0-7.5 3.4-7.5 7.5v76.9l-4.8-4.6c-3-2.9-7.7-2.8-10.6 0.2-2.9 3-2.8 7.7 0.2 10.6l15.2 14.6v57.1c0 30.2 24.6 54.8 54.8 54.8 30.2 0 54.8-24.6 54.8-54.8v-59.6l4.8 4.7c1.5 1.4 3.3 2.1 5.2 2.1 2 0 3.9-0.8 5.4-2.4 2.9-2.9 2.8-7.7-0.2-10.6z"/></svg>